# xmcd
#
# Track frame offsets:
#	150
#	14306
#	26638
#	39997
#	53440
#	66088
#	81165
#	93275
#	107816
#	121615
#	135538
#	147839
#	162487
#	174970
#	186903
#	198410
#	210728
#	225607
#	239028
#	251966
#	265782
#	277735
#	291141
#	304664
#	318140
#
# Disc length: 4380 seconds
#
# Revision: 2
# Processed by: cddbd v1.5.2PL0 Copyright (c) Steve Scherf et al.
# Submitted via: audiograbber 1.83.01
#
DISCID=57111a19
DTITLE=John Lee Hooker - Too Much Boogie [CD2)
DYEAR=2004
DGENRE=Blues
TTITLE0=I'm In The Mood
TTITLE1=High Priced Woman
TTITLE2=Union Station Blues
TTITLE3=Ground Hog Blues
TTITLE4=Leave My Woman Alone
TTITLE5=Ramblin' By Myself
TTITLE6=How Can You Do It
TTITLE7=Anybody Seen My Baby
TTITLE8=Turn Over A New Leaf
TTITLE9=Cold Chills
TTITLE10=Walkin' The Boogie
TTITLE11=Sugar Mama
TTITLE12=It Hurts Me So
TTITLE13=I Got Eyes For You
TTITLE14=Key To The Highway
TTITLE15=Bluebird Blues
TTITLE16=It's Been A Long Time Baby
TTITLE17=Ride'Til I Die
TTITLE18=Rock House Boogie
TTITLE19=It's Stormin' And Rainin'
TTITLE20=Love Money Can't Buy
TTITLE21=Please Take Me Back
TTITLE22=Too Much Boogie
TTITLE23=Need Somebody
TTITLE24=I'm A Boogie Man
EXTD=recorded between 1950-1953
EXTT0=
EXTT1=
EXTT2=
EXTT3=
EXTT4=
EXTT5=
EXTT6=
EXTT7=
EXTT8=
EXTT9=
EXTT10=
EXTT11=
EXTT12=
EXTT13=
EXTT14=
EXTT15=
EXTT16=
EXTT17=
EXTT18=
EXTT19=
EXTT20=
EXTT21=
EXTT22=
EXTT23=
EXTT24=
PLAYORDER=
